<svg width="128" height="124" viewBox="0 0 128 124" fill="none" xmlns="http://www.w3.org/2000/svg">
<path d="M81.6667 38.7917C81.6667 48.8248 73.533 56.9583 63.5 56.9583C53.4668 56.9583 45.3333 48.8248 45.3333 38.7917C45.3333 28.7585 53.4668 20.625 63.5 20.625C73.533 20.625 81.6667 28.7585 81.6667 38.7917Z" stroke="black" stroke-width="2.752" stroke-linecap="round" stroke-linejoin="round"/>
<path d="M63.5 70.5835C45.942 70.5835 31.7083 84.8171 31.7083 102.375H95.2917C95.2917 84.8171 81.0581 70.5835 63.5 70.5835Z" stroke="black" stroke-width="2.752" stroke-linecap="round" stroke-linejoin="round"/>
<path d="M127.5 62C127.5 95.9507 99.0852 123.5 64 123.5C28.9148 123.5 0.5 95.9507 0.5 62C0.5 28.0493 28.9148 0.5 64 0.5C99.0852 0.5 127.5 28.0493 127.5 62Z" stroke="black"/>
</svg>
