<svg width="58" height="58" viewBox="0 0 58 58" fill="none" xmlns="http://www.w3.org/2000/svg">
<g style="mix-blend-mode:luminosity" clip-path="url(#clip0_7_81)">
<path fill-rule="evenodd" clip-rule="evenodd" d="M29.0001 0C44.9727 0 58 13.0273 58 28.9999C58 44.9727 44.9727 57.9999 29.0001 57.9999C13.0274 57.9999 0 44.9727 0 28.9999C0 13.0273 13.0274 0 29.0001 0Z" fill="black"/>
<path d="M12.1514 20.3025L5.30829 14.4167L7.87073 11.4375C8.39221 10.8313 8.88032 10.4054 9.33213 10.1574C9.78685 9.90889 10.2468 9.80583 10.7133 9.84687C11.1779 9.88659 11.5698 10.0403 11.8853 10.3116C12.1768 10.5623 12.3729 10.8918 12.472 11.2986C12.573 11.7036 12.5414 12.1623 12.3814 12.6707C12.9156 12.2944 13.4392 12.1048 13.9532 12.0968C14.4689 12.0902 14.9258 12.2582 15.3242 12.6008C15.6391 12.8691 15.8773 13.2159 16.0147 13.606C16.1551 14 16.2 14.3765 16.1512 14.7363C16.1024 15.0962 15.9642 15.4823 15.7419 15.8954C15.5194 16.3087 15.1905 16.7686 14.755 17.275L12.1514 20.3025ZM9.08867 15.8387L10.5653 14.122C10.9643 13.6579 11.2249 13.3001 11.3472 13.0517C11.5074 12.7267 11.5677 12.4278 11.5244 12.1558C11.481 11.884 11.3408 11.6444 11.1017 11.4386C10.8755 11.244 10.6207 11.1342 10.3404 11.1119C10.0572 11.0901 9.78342 11.1697 9.51951 11.3479C9.25401 11.5278 8.87557 11.9031 8.38416 12.4744L7.02041 14.0601L9.08867 15.8387ZM12.2481 18.556L13.9473 16.5805C14.2397 16.2405 14.4337 15.9924 14.5305 15.8376C14.7005 15.5628 14.8116 15.3077 14.8638 15.0699C14.9178 14.8332 14.9049 14.5905 14.8298 14.3427C14.7515 14.0953 14.6064 13.8773 14.3881 13.6895C14.1333 13.4702 13.8466 13.3554 13.5266 13.3441C13.2083 13.3339 12.8948 13.4308 12.5861 13.635C12.2809 13.8385 11.9088 14.1937 11.4748 14.6983L9.8965 16.5334L12.2481 18.556ZM23.5291 10.1917V2.45117H25.5698L27.9921 7.93167C28.2161 8.44181 28.3807 8.82382 28.4808 9.07796C28.5976 8.79677 28.7788 8.38216 29.0266 7.83627L31.4774 2.45117H33.3011V10.1917H31.9948V3.71266L29.0195 10.1917H27.7965L24.8354 3.60261V10.1917H23.5291ZM42.0404 14.7115L46.7767 8.28953L47.423 9.0872L44.2154 13.1687C43.8853 13.593 43.5427 14.0074 43.1882 14.4115C43.9512 14.0424 44.3911 13.8311 44.5125 13.7779L49.4695 11.6127L50.2301 12.5513L47.8747 15.8537C47.2924 16.6745 46.7073 17.4004 46.1216 18.0314C46.5601 17.7985 47.0758 17.5438 47.6637 17.2667L52.2655 15.0629L52.8997 15.8454L45.5937 19.0963L44.9862 18.3464L48.5538 13.4041C48.8525 12.9899 49.0372 12.7383 49.1083 12.6489C48.7829 12.8103 48.5019 12.9429 48.2643 13.047L42.6834 15.5048L42.0404 14.7115Z" fill="white"/>
<path fill-rule="evenodd" clip-rule="evenodd" d="M46.1308 29.2871C46.1308 38.5644 38.5644 46.1307 29.2872 46.1307V29.2871H46.1308Z" fill="#00ACEC"/>
<path fill-rule="evenodd" clip-rule="evenodd" d="M46.1308 28.7127C46.1308 19.4356 38.5644 11.8691 29.2872 11.8691V28.7127H46.1308Z" fill="white"/>
<path fill-rule="evenodd" clip-rule="evenodd" d="M11.8694 28.7127C11.8694 19.4356 19.4357 11.8691 28.7129 11.8691V28.7127H11.8694Z" fill="#00ACEC"/>
<path fill-rule="evenodd" clip-rule="evenodd" d="M11.8694 29.2871C11.8694 38.5644 19.4357 46.1307 28.7129 46.1307V29.2871H11.8694Z" fill="white"/>
</g>
<defs>
<clipPath id="clip0_7_81">
<rect width="58" height="58" fill="white"/>
</clipPath>
</defs>
</svg>
