<svg width="60" height="60" viewBox="0 0 60 60" fill="none" xmlns="http://www.w3.org/2000/svg">
<g clip-path="url(#clip0_7_79)">
<path d="M43.95 3.375C39.75 1.2 35.025 0 30 0C24.975 0 20.25 1.2 16.05 3.375C6.525 8.4 0 18.45 0 30C0 41.55 6.525 51.6 16.125 56.625C20.25 58.725 24.975 60 30 60C35.025 60 39.675 58.725 43.875 56.55C53.475 51.6 60 41.55 60 30C60 18.45 53.475 8.4 43.95 3.375ZM3 30C3 20.175 8.25 11.625 16.125 6.825C19.95 4.5 24.375 3.15 29.25 3L25.875 27.525L16.125 35.1L6.225 42.825C4.2 39 3 34.65 3 30ZM43.95 53.1C39.825 55.575 35.1 57 30 57C24.9 57 20.1 55.575 16.05 53.1C12.375 50.925 9.375 47.925 7.125 44.325L16.05 40.65L30 34.95L43.95 40.575L52.95 44.25C50.7 47.925 47.55 50.925 43.95 53.1ZM43.95 35.1L34.275 27.6L30.825 3C35.55 3.15 40.05 4.5 43.875 6.825C51.75 11.55 57 20.175 57 30C57 34.65 55.875 39 53.775 42.825L43.95 35.1Z" fill="black"/>
</g>
<defs>
<clipPath id="clip0_7_79">
<rect width="60" height="60" fill="white"/>
</clipPath>
</defs>
</svg>
